<?xml version="1.0" encoding="utf-8"?>
<!-- Generator: Adobe Illustrator 28.2.0, SVG Export Plug-In . SVG Version: 6.00 Build 0)  -->
<svg version="1.1" id="Layer_1" xmlns="http://www.w3.org/2000/svg" xmlns:xlink="http://www.w3.org/1999/xlink" x="0px" y="0px"
	 viewBox="0 0 453 262" style="enable-background:new 0 0 453 262;" xml:space="preserve">
<style type="text/css">
	.st0{stroke:#004754;stroke-width:0.4018;stroke-miterlimit:11.3386;}
	.st1{fill:#FFFFFF;stroke:#FFFFFF;stroke-miterlimit:11.3386;}
	.st2{fill-rule:evenodd;clip-rule:evenodd;}
</style>
<path class="st0" d="M140.3,224.2h27.6v7.9h-27.6c-5.5,0-10.1-1.9-13.9-5.8c-3.8-3.8-5.8-8.5-5.8-13.9c0-5.5,1.9-10.1,5.8-13.9
	c3.8-3.8,8.5-5.8,13.9-5.8h31.5l-3.9,7.9h-27.6c-3.3,0-6.1,1.1-8.4,3.4c-2.3,2.3-3.4,5.1-3.4,8.4c0,3.3,1.1,6.1,3.4,8.4
	C134.2,223,137,224.2,140.3,224.2L140.3,224.2z"/>
<path class="st0" d="M187.6,232.1c-5.5,0-10.1-1.9-13.9-5.8c-3.8-3.8-5.8-8.5-5.8-13.9c0-5.5,1.9-10.1,5.8-13.9
	c3.8-3.8,8.5-5.8,13.9-5.8c5.5,0,10.1,1.9,13.9,5.8c3.8,3.8,5.8,8.5,5.8,13.9s-1.9,10.1-5.8,13.9C197.7,230.2,193,232.1,187.6,232.1
	z"/>
<path class="st1" d="M187.6,224.2c3.3,0,6.1-1.1,8.4-3.4c2.3-2.3,3.4-5.1,3.4-8.4s-1.1-6.1-3.4-8.4c-2.3-2.3-5.1-3.4-8.4-3.4
	c-3.3,0-6.1,1.1-8.4,3.4c-2.3,2.3-3.4,5.1-3.4,8.4c0,3.3,1.1,6.1,3.4,8.4C181.5,223,184.3,224.2,187.6,224.2z"/>
<path class="st0" d="M219.7,208.4v39.4h-7.9v-55.1h7.9l15.7,29.5l15.8-29.5h7.9v39.4h-7.9v-23.6l-11.8,23.6h-7.9L219.7,208.4
	L219.7,208.4z"/>
<path class="st0" d="M275.7,247.8h-7.9v-55.1h27.6c3.3,0,6.1,1.1,8.4,3.4c2.3,2.3,3.4,5.1,3.4,8.4c0,3.3-1.1,6.1-3.4,8.4
	c-2.3,2.3-5.1,3.4-8.4,3.4h-9.8v-7.9h9.8c1.1,0,2-0.4,2.8-1.1c0.8-0.8,1.1-1.7,1.1-2.8c0-1.1-0.4-2-1.1-2.8
	c-0.8-0.8-1.7-1.1-2.8-1.1h-19.7V247.8L275.7,247.8z"/>
<path class="st0" d="M299.3,232.1l19.7-41.3l19.7,41.3h-8.9L319,209.4l-10.8,22.6L299.3,232.1L299.3,232.1z"/>
<path class="st0" d="M348.9,204.5v43.3h-7.9v-55.1h7.9l23.6,27.6V173h7.9v59.1h-7.9L348.9,204.5L348.9,204.5z"/>
<path class="st0" d="M397.7,213.6L382,192.7h9.8l9.8,13.1l9.8-13.1h9.8l-15.7,20.9v34.3h-7.9L397.7,213.6L397.7,213.6z"/>
<path class="st0" d="M36.2,93h-15V18.2h52.4c6.2,0,11.5,2.2,15.9,6.5c4.4,4.4,6.5,9.7,6.5,15.9s-2.2,11.5-6.5,15.9
	c-4.4,4.4-9.7,6.5-15.9,6.5H54.9v-15h18.7c2.1,0,3.9-0.7,5.3-2.2c1.4-1.4,2.2-3.2,2.2-5.3c0-2.1-0.7-3.9-2.2-5.3
	c-1.4-1.4-3.2-2.2-5.3-2.2H36.2L36.2,93L36.2,93z"/>
<path class="st0" d="M118.3,78h59.8v15h-74.8V18.2h15L118.3,78L118.3,78z"/>
<path class="st0" d="M212.1,78h37.4v15h-37.4c-10.4,0-19.2-3.6-26.5-10.9c-7.3-7.3-10.9-16.1-10.9-26.5s3.6-19.2,10.9-26.5
	c7.3-7.3,16.1-10.9,26.5-10.9h37.4v15h-37.4c-6.2,0-11.5,2.2-15.9,6.5c-4.4,4.4-6.5,9.7-6.5,15.9s2.2,11.5,6.5,15.9
	C200.6,75.8,205.9,78,212.1,78L212.1,78z"/>
<path class="st0" d="M273.8,93c-2.6,0-4.8-0.9-6.6-2.7c-1.8-1.8-2.7-4-2.7-6.6c0-2.6,0.9-4.8,2.7-6.6c1.8-1.8,4-2.7,6.6-2.7
	c2.6,0,4.8,0.9,6.6,2.7c1.8,1.8,2.7,4,2.7,6.6c0,2.6-0.9,4.8-2.7,6.6C278.6,92.1,276.4,93,273.8,93z"/>
<path class="st2" d="M28,132.1h91.2v-21.3h6.7v21.3h92.2v-21.3h6.7v21.3h92.7v-21.3h6.7v21.3h90.3v-21.3h6.7v50h-6.7V139h-90.3v21.8
	h-6.7V139h-92.7v21.8h-6.7V139h-92.2v21.8h-6.7V139H28v21.8h-6.7v-50H28V132.1z"/>
</svg>
